<?xml version="1.0" encoding="utf-8"?>
<!-- Generator: Adobe Illustrator 15.1.0, SVG Export Plug-In . SVG Version: 6.00 Build 0)  -->
<!DOCTYPE svg PUBLIC "-//W3C//DTD SVG 1.1//EN" "http://www.w3.org/Graphics/SVG/1.1/DTD/svg11.dtd">
<svg version="1.1" id="Layer_1" xmlns="http://www.w3.org/2000/svg" xmlns:xlink="http://www.w3.org/1999/xlink" x="0px" y="0px"
	 width="800px" height="800px" viewBox="0 0 800 800" enable-background="new 0 0 800 800" xml:space="preserve">
<g>
	<g>
		<path fill="#FFFFFF" d="M73.24,125.701H11.574V66.882h267.537c201.123,0,334.892,122.383,334.892,332.995
			c0,212.509-133.77,333.944-334.892,333.944H131.114c-40.796,0-57.874-17.077-57.874-57.87V125.701z M160.523,675.001h111.945
			c164.125,0,272.278-96.769,272.278-275.125c0-177.408-109.102-274.175-272.278-274.175H139.651v528.427
			C139.651,668.358,147.239,675.001,160.523,675.001z"/>
	</g>
	<g>
		<path fill="#FFFFFF" d="M708.915,150.923c18.023-6.639,20.873-16.128,20.873-34.151v-9.489h58.819v29.41
			c0,47.436-9.489,61.666-55.027,77.794L284.845,378.611c-34.154,12.336-86.334,25.619-86.334,25.619v1.897
			c0,0,52.18,13.278,86.334,25.611l448.739,164.125c46.486,17.08,55.023,31.311,55.023,78.742v28.461h-58.819v-8.537
			c0-18.025-2.847-27.515-20.869-34.153l-587.25-219.149l-0.003-71.153L708.915,150.923z"/>
	</g>
</g>
</svg>
