<?xml version="1.0" encoding="utf-8"?>
<!-- Generator: Adobe Illustrator 25.2.1, SVG Export Plug-In . SVG Version: 6.00 Build 0)  -->
<svg version="1.1" id="Layer_1" xmlns="http://www.w3.org/2000/svg" xmlns:xlink="http://www.w3.org/1999/xlink" x="0px" y="0px"
	 viewBox="0 0 800 800" style="enable-background:new 0 0 800 800;" xml:space="preserve">
<style type="text/css">
	.st0{fill:#549BD4;}
	.st1{fill:#FFFFFF;}
</style>
<rect class="st0" width="800" height="800"/>
<g>
	<g>
		<path class="st1" d="M115,159.8H61.1v-51.5h234C471,108.3,588,215.4,588,399.6c0,185.9-117,292.1-292.9,292.1H165.6
			c-35.7,0-50.6-14.9-50.6-50.6V159.8z M191.3,640.2h97.9c143.6,0,238.2-84.6,238.2-240.7c0-155.2-95.4-239.8-238.2-239.8H173.1V622
			C173.1,634.4,179.7,640.2,191.3,640.2z"/>
	</g>
	<g>
		<path class="st1" d="M671,181.8c15.8-5.8,18.3-14.1,18.3-29.9v-8.3h51.5v25.7c0,41.5-8.3,53.9-48.1,68L300.1,381
			c-29.9,10.8-75.5,22.4-75.5,22.4v1.7c0,0,45.6,11.6,75.5,22.4L692.6,571c40.7,14.9,48.1,27.4,48.1,68.9v24.9h-51.5v-7.5
			c0-15.8-2.5-24.1-18.3-29.9L157.4,435.8l0-62.2L671,181.8z"/>
	</g>
</g>
</svg>
